<svg xmlns="http://www.w3.org/2000/svg" viewBox="0 0 520.48 520.4"><title>kite_sync@vector</title><g id="Layer_2" data-name="Layer 2"><g id="Layer_1-2" data-name="Layer 1"><path  d="M444.17,234.09c8,55.37-8.85,113.69-52,156.25-63.82,63-162.29,70.73-234.71,23.42l50.74-49.47-186.47-26,26,182.11,56.94-54.55c102.26,75.38,247.28,68.27,340.2-23.42,53.87-53.15,78.43-123.71,75.38-193.33ZM128.4,130.14c63.8-63,162.24-70.77,234.66-23.42l-50.82,49.44,186.47,26L472.71,0,415.83,54.67C313.56-20.77,168.57-13.57,75.63,78.09,21.76,131.22-2.78,201.78.25,271.38l76.06,15C68.26,231,85.2,172.73,128.4,130.14Z"/><polygon points="259.46 244.74 220.62 317.81 304.75 389.65 332.6 282.03 259.46 244.74"/><polygon points="225.56 138.45 155.49 262.19 204.26 303.84 251.69 220.09 337.99 261.21 353.92 199.63 225.56 138.45"/></g></g></svg>
